<svg width="100" height="25" viewBox="0 0 100 25" fill="none" xmlns="http://www.w3.org/2000/svg">
<path d="M28.042 3.04396V19.715C28.0254 20.3942 27.7691 21.0456 27.3186 21.5542C26.868 22.0627 26.2522 22.3956 25.58 22.4939L25.1383 22.5472C22.3413 23.0104 19.6083 23.7996 16.9949 24.8985C16.7823 24.9837 16.552 25.0156 16.3242 24.9912C16.0965 24.9669 15.8781 24.8871 15.6883 24.7588C15.4985 24.6306 15.343 24.4578 15.2355 24.2556C15.1279 24.0534 15.0715 23.8278 15.0712 23.5988V4.09134C15.0722 3.83507 15.1427 3.58388 15.2753 3.36459C15.4079 3.1453 15.5976 2.96615 15.8241 2.84627C18.6618 1.36717 21.7395 0.403467 24.914 0H24.9981C25.3978 0 25.7936 0.0787344 26.163 0.231708C26.5323 0.384681 26.8678 0.608898 27.1505 0.891557C27.4331 1.17421 27.6574 1.50978 27.8103 1.87909C27.9633 2.2484 28.042 2.64423 28.042 3.04396Z" fill="#2680EB"/>
<path d="M12.2123 2.84767C9.37464 1.36857 6.29696 0.404869 3.12248 0.001402H3.03836C2.23226 0.00288712 1.45967 0.324053 0.890068 0.894443C0.320466 1.46483 0.000369933 2.23787 0 3.04396V19.715C0.0166572 20.3942 0.272909 21.0456 0.723457 21.5542C1.17401 22.0627 1.78984 22.3956 2.46209 22.4939L2.90375 22.5472C5.70091 23.0102 8.43406 23.7999 11.0472 24.8999C11.2598 24.9849 11.4901 25.0165 11.7177 24.9919C11.9454 24.9673 12.1636 24.8874 12.3533 24.759C12.5429 24.6306 12.6982 24.4578 12.8057 24.2555C12.9131 24.0533 12.9693 23.8278 12.9694 23.5988V4.09134C12.9678 3.83488 12.8965 3.58368 12.7632 3.36462C12.6298 3.14556 12.4394 2.96687 12.2123 2.84767ZM4.20631 7.09604H7.36104C7.63993 7.09604 7.9074 7.20683 8.10461 7.40404C8.30182 7.60125 8.41261 7.86872 8.41261 8.14762C8.41261 8.42651 8.30182 8.69399 8.10461 8.89119C7.9074 9.0884 7.63993 9.19919 7.36104 9.19919H4.20631C3.92741 9.19919 3.65994 9.0884 3.46273 8.89119C3.26552 8.69399 3.15473 8.42651 3.15473 8.14762C3.15473 7.86872 3.26552 7.60125 3.46273 7.40404C3.65994 7.20683 3.92741 7.09604 4.20631 7.09604ZM8.41261 13.4055H4.20631C3.92741 13.4055 3.65994 13.2947 3.46273 13.0975C3.26552 12.9003 3.15473 12.6328 3.15473 12.3539C3.15473 12.075 3.26552 11.8076 3.46273 11.6103C3.65994 11.4131 3.92741 11.3023 4.20631 11.3023H8.41261C8.69151 11.3023 8.95898 11.4131 9.15619 11.6103C9.3534 11.8076 9.46419 12.075 9.46419 12.3539C9.46419 12.6328 9.3534 12.9003 9.15619 13.0975C8.95898 13.2947 8.69151 13.4055 8.41261 13.4055Z" fill="#2680EB"/>
<path d="M39.3598 19.6322C38.8887 19.6322 38.5157 19.4948 38.2409 19.22C37.9661 18.9452 37.8287 18.5723 37.8287 18.1011V7.10866C37.8287 6.65064 37.953 6.29731 38.2017 6.04867C38.4503 5.80003 38.8036 5.67571 39.2617 5.67571H44.1887C45.6936 5.67571 46.8648 6.05521 47.7023 6.81422C48.5398 7.57322 48.9586 8.63321 48.9586 9.99419C48.9586 11.3552 48.5398 12.4151 47.7023 13.1742C46.8648 13.9332 45.6936 14.3127 44.1887 14.3127H40.8909V18.1011C40.8909 18.5723 40.7535 18.9452 40.4787 19.22C40.2039 19.4948 39.8309 19.6322 39.3598 19.6322ZM43.7961 11.9964C45.3272 11.9964 46.0927 11.3355 46.0927 10.0138C46.0927 8.67901 45.3272 8.01161 43.7961 8.01161H40.8909V11.9964H43.7961Z" fill="#2680EB"/>
<path d="M57.9378 16.6486C58.1996 16.6486 58.4089 16.7533 58.566 16.9626C58.7361 17.172 58.8212 17.4403 58.8212 17.7674C58.8212 17.9899 58.7557 18.1993 58.6249 18.3956C58.494 18.5788 58.3108 18.7358 58.0752 18.8667C57.6303 19.1022 57.1134 19.2985 56.5245 19.4556C55.9356 19.5995 55.3926 19.6715 54.8953 19.6715C53.8484 19.6715 52.9323 19.4687 52.1472 19.063C51.3751 18.6573 50.7796 18.0815 50.3609 17.3356C49.9421 16.5766 49.7327 15.6867 49.7327 14.666C49.7327 13.6845 49.9356 12.8143 50.3413 12.0553C50.7469 11.2963 51.3096 10.7074 52.0294 10.2886C52.7491 9.85678 53.567 9.64086 54.4831 9.64086C55.3598 9.64086 56.1254 9.83715 56.7797 10.2297C57.4471 10.6092 57.964 11.1589 58.3304 11.8786C58.6968 12.5853 58.8801 13.4163 58.8801 14.3716C58.8801 14.6594 58.8081 14.8819 58.6641 15.039C58.5333 15.1829 58.3435 15.2549 58.0949 15.2549H52.5986C52.6902 16.027 52.9258 16.5897 53.3053 16.943C53.6848 17.2833 54.2279 17.4534 54.9345 17.4534C55.314 17.4534 55.6543 17.4076 55.9553 17.316C56.2563 17.2244 56.5899 17.1 56.9564 16.943C57.1396 16.8645 57.3162 16.7991 57.4864 16.7467C57.6565 16.6813 57.807 16.6486 57.9378 16.6486ZM54.5616 11.6823C53.9989 11.6823 53.5474 11.8655 53.2071 12.2319C52.8669 12.5853 52.6641 13.1022 52.5986 13.7827H56.3871C56.3479 13.0891 56.1712 12.5656 55.8571 12.2123C55.5561 11.859 55.1243 11.6823 54.5616 11.6823Z" fill="#2680EB"/>
<path d="M66.304 9.68011C66.6965 9.65394 67.0041 9.74555 67.2265 9.95493C67.4621 10.1512 67.5799 10.4522 67.5799 10.8579C67.5799 11.2897 67.4752 11.6103 67.2658 11.8197C67.0564 12.0291 66.6835 12.16 66.1469 12.2123L65.558 12.2712C64.8383 12.3497 64.3148 12.5853 63.9877 12.9779C63.6736 13.3704 63.5166 13.8743 63.5166 14.4893V18.2386C63.5166 18.6966 63.3726 19.0434 63.0847 19.2789C62.8099 19.5145 62.4631 19.6322 62.0444 19.6322C61.6125 19.6322 61.2527 19.5145 60.9648 19.2789C60.6899 19.0434 60.5525 18.6966 60.5525 18.2386V11.0345C60.5525 10.6027 60.6965 10.269 60.9844 10.0334C61.2723 9.79789 61.6191 9.68011 62.0247 9.68011C62.4173 9.68011 62.7445 9.79789 63.0062 10.0334C63.2679 10.2559 63.3988 10.57 63.3988 10.9757V11.5057C63.6344 10.9429 63.9877 10.5111 64.4588 10.2101C64.943 9.90913 65.4664 9.739 66.0292 9.69975L66.304 9.68011Z" fill="#2680EB"/>
<path d="M74.2807 9.64086C75.1051 9.64086 75.838 9.85678 76.4792 10.2886C77.1335 10.7074 77.6373 11.3028 77.9907 12.0749C78.3571 12.8339 78.5403 13.7107 78.5403 14.7053C78.5403 15.6998 78.3571 16.5766 77.9907 17.3356C77.6373 18.0815 77.1401 18.6573 76.4988 19.063C75.8576 19.4687 75.1182 19.6715 74.2807 19.6715C73.6264 19.6715 73.031 19.5406 72.4944 19.2789C71.971 19.0041 71.5653 18.6246 71.2774 18.1404V21.8504C71.2774 22.243 71.1466 22.557 70.8848 22.7926C70.6231 23.0281 70.2763 23.1459 69.8445 23.1459C69.3864 23.1459 69.0135 23.0216 68.7256 22.7729C68.4508 22.5243 68.3134 22.1972 68.3134 21.7915V11.0738C68.3134 10.655 68.4442 10.3213 68.706 10.0727C68.9808 9.81098 69.3407 9.68011 69.7856 9.68011C70.2305 9.68011 70.5838 9.81098 70.8456 10.0727C71.1073 10.3213 71.2382 10.655 71.2382 11.0738V11.2308C71.5261 10.7336 71.9383 10.3475 72.4748 10.0727C73.0113 9.78481 73.6133 9.64086 74.2807 9.64086ZM73.417 17.4141C74.1106 17.4141 74.6471 17.1851 75.0266 16.7271C75.4061 16.256 75.5959 15.582 75.5959 14.7053C75.5959 13.8154 75.4061 13.1284 75.0266 12.6442C74.6471 12.1469 74.1106 11.8982 73.417 11.8982C72.7234 11.8982 72.1869 12.1403 71.8074 12.6245C71.4279 13.0956 71.2382 13.7761 71.2382 14.666C71.2382 15.5428 71.4279 16.2233 71.8074 16.7075C72.1869 17.1786 72.7234 17.4141 73.417 17.4141Z" fill="#2680EB"/>
<path d="M88.0268 9.68011C88.4849 9.68011 88.8447 9.80443 89.1065 10.0531C89.3813 10.3017 89.5187 10.642 89.5187 11.0738V18.2778C89.5187 18.6835 89.3747 19.0106 89.0868 19.2593C88.812 19.5079 88.4521 19.6322 88.0072 19.6322C87.5884 19.6322 87.2548 19.5145 87.0061 19.2789C86.7575 19.0434 86.6332 18.7293 86.6332 18.3367V18.1404C86.3322 18.6377 85.933 19.0172 85.4358 19.2789C84.9516 19.5406 84.4019 19.6715 83.7869 19.6715C82.5699 19.6715 81.6604 19.3378 81.0584 18.6704C80.4695 17.9899 80.1751 16.9692 80.1751 15.6082V11.0738C80.1751 10.642 80.3059 10.3017 80.5677 10.0531C80.8425 9.80443 81.2089 9.68011 81.6669 9.68011C82.1249 9.68011 82.4848 9.80443 82.7465 10.0531C83.0082 10.3017 83.1391 10.642 83.1391 11.0738V15.6671C83.1391 16.2429 83.2569 16.6682 83.4924 16.943C83.7411 17.2178 84.114 17.3552 84.6113 17.3552C85.1871 17.3552 85.6517 17.1589 86.005 16.7663C86.3714 16.3738 86.5546 15.8568 86.5546 15.2156V11.0738C86.5546 10.642 86.6855 10.3017 86.9472 10.0531C87.2089 9.80443 87.5688 9.68011 88.0268 9.68011Z" fill="#2680EB"/>
<path d="M95.3264 19.6715C94.5281 19.6715 93.8345 19.6061 93.2457 19.4752C92.6568 19.3443 92.1399 19.135 91.6949 18.8471C91.4986 18.7293 91.3482 18.5723 91.2435 18.376C91.1388 18.1797 91.0864 17.9572 91.0864 17.7086C91.0864 17.4076 91.1715 17.1589 91.3416 16.9626C91.5117 16.7533 91.7211 16.6486 91.9698 16.6486C92.1399 16.6486 92.31 16.6813 92.4801 16.7467C92.6502 16.7991 92.8269 16.8645 93.0101 16.943C93.3765 17.1131 93.7364 17.2505 94.0897 17.3552C94.4431 17.4468 94.8814 17.4926 95.4049 17.4926C95.8629 17.4926 96.2162 17.4207 96.4649 17.2767C96.7266 17.1328 96.8575 16.9365 96.8575 16.6878C96.8575 16.5046 96.7986 16.3607 96.6808 16.256C96.5761 16.1382 96.3733 16.0335 96.0723 15.9419C95.7713 15.8503 95.2937 15.7391 94.6394 15.6082C93.4747 15.3857 92.6372 15.052 92.1268 14.6071C91.6164 14.1622 91.3612 13.5406 91.3612 12.7423C91.3612 12.1534 91.5379 11.6234 91.8912 11.1523C92.2577 10.6812 92.7549 10.3148 93.3831 10.0531C94.0112 9.77826 94.7179 9.64086 95.5031 9.64086C96.0658 9.64086 96.6154 9.71283 97.1519 9.85678C97.6885 10.0007 98.1661 10.2036 98.5849 10.4653C98.9905 10.7139 99.1934 11.0803 99.1934 11.5645C99.1934 11.8786 99.1083 12.1403 98.9382 12.3497C98.7681 12.5591 98.5587 12.6638 98.3101 12.6638C98.0091 12.6638 97.6492 12.546 97.2304 12.3105C96.9033 12.1403 96.6023 12.016 96.3275 11.9375C96.0658 11.8459 95.7517 11.8001 95.3853 11.8001C94.9796 11.8001 94.659 11.8786 94.4234 12.0356C94.1879 12.1796 94.0701 12.3824 94.0701 12.6442C94.0701 12.919 94.2075 13.1284 94.4823 13.2723C94.7571 13.4163 95.2871 13.5602 96.0723 13.7042C96.9491 13.8743 97.6361 14.0837 98.1334 14.3323C98.6307 14.5678 98.9905 14.8688 99.213 15.2352C99.4355 15.6017 99.5467 16.0662 99.5467 16.6289C99.5467 17.5581 99.1607 18.2974 98.3886 18.8471C97.6296 19.3967 96.6088 19.6715 95.3264 19.6715Z" fill="#2680EB"/>
</svg>
