<svg width="14" height="16" viewBox="0 0 14 16" fill="none" xmlns="http://www.w3.org/2000/svg">
<path d="M9.33203 0.833496H4.66536C1.72736 0.833496 0.832031 1.72883 0.832031 4.66683V12.3335C0.832913 13.0847 1.13171 13.8048 1.66287 14.336C2.19403 14.8672 2.91419 15.1659 3.66536 15.1668H10.332C11.0832 15.1659 11.8034 14.8672 12.3345 14.336C12.8657 13.8048 13.1645 13.0847 13.1654 12.3335V4.66683C13.1654 1.72883 12.27 0.833496 9.33203 0.833496ZM4.66536 1.8335H9.33203C11.7154 1.8335 12.1654 2.2835 12.1654 4.66683V9.50016H3.23336C2.72975 9.50129 2.23951 9.66237 1.83336 9.96016V4.66683C1.83203 2.2835 2.28203 1.8335 4.66536 1.8335ZM10.332 14.1668H3.66536C3.17924 14.1665 2.71313 13.9732 2.36939 13.6295C2.02565 13.2857 1.83238 12.8196 1.83203 12.3335V11.9015C1.83203 11.5302 1.97953 11.1741 2.24208 10.9115C2.50463 10.649 2.86073 10.5015 3.23203 10.5015H12.1654V11.3335C12.1654 11.4155 12.1654 11.4968 12.16 11.5788C12.16 11.5928 12.1654 11.6048 12.1654 11.6188V12.3335C12.165 12.8196 11.9717 13.2857 11.628 13.6295C11.2843 13.9732 10.8182 14.1665 10.332 14.1668Z" fill="#6B718C"/>
<path d="M10.1654 4.66699C10.1654 4.7996 10.1127 4.92678 10.0189 5.02055C9.92515 5.11431 9.79797 5.16699 9.66536 5.16699H4.33203C4.19942 5.16699 4.07225 5.11431 3.97848 5.02055C3.88471 4.92678 3.83203 4.7996 3.83203 4.66699C3.83203 4.53438 3.88471 4.40721 3.97848 4.31344C4.07225 4.21967 4.19942 4.16699 4.33203 4.16699H9.66536C9.79797 4.16699 9.92515 4.21967 10.0189 4.31344C10.1127 4.40721 10.1654 4.53438 10.1654 4.66699ZM7.66536 6.50033H4.33203C4.19942 6.50033 4.07225 6.553 3.97848 6.64677C3.88471 6.74054 3.83203 6.86772 3.83203 7.00033C3.83203 7.13293 3.88471 7.26011 3.97848 7.35388C4.07225 7.44765 4.19942 7.50033 4.33203 7.50033H7.66536C7.79797 7.50033 7.92515 7.44765 8.01892 7.35388C8.11269 7.26011 8.16536 7.13293 8.16536 7.00033C8.16536 6.86772 8.11269 6.74054 8.01892 6.64677C7.92515 6.553 7.79797 6.50033 7.66536 6.50033Z" fill="#2680EB"/>
</svg>
