<svg width="24" height="22" viewBox="0 0 24 22" fill="none" xmlns="http://www.w3.org/2000/svg">
<path d="M23.3677 0.367894C23.178 0.204951 22.956 0.0917558 22.7191 0.0371893C22.4821 -0.0173771 22.2367 -0.0118302 22.0021 0.0533947L13.2519 2.48735V22L22.8113 19.3473C23.1533 19.2526 23.456 19.037 23.6715 18.7346C23.8869 18.4323 24.0025 18.0607 24 17.679V1.70794C23.9961 1.44722 23.9371 1.19092 23.8275 0.958653C23.7179 0.726386 23.5606 0.524311 23.3677 0.367894Z" fill="#2680EB"/>
<path d="M10.7229 2.48735L1.94742 0.0533949C1.71639 -0.00445352 1.47638 -0.00625405 1.24463 0.0481233C1.01288 0.102501 0.79515 0.211706 0.607068 0.367895C0.41541 0.529933 0.260928 0.737626 0.155653 0.974799C0.0503774 1.21197 -0.00284942 1.47222 0.000117567 1.73528V17.679C0.000384186 18.0584 0.117321 18.4268 0.332512 18.7263C0.547703 19.0259 0.848921 19.2395 1.18873 19.3336L10.7229 22V2.48735Z" fill="#2680EB"/>
</svg>
