<svg width="16" height="16" viewBox="0 0 16 16" fill="none" xmlns="http://www.w3.org/2000/svg">
<path d="M10.0103 4.92632V4.30432C10.0103 3.65277 9.7515 3.02791 9.29078 2.5672C8.83007 2.10648 8.2052 1.84766 7.55366 1.84766H4.30366C3.65222 1.84783 3.02753 2.10674 2.56696 2.56743C2.10639 3.02813 1.84766 3.65289 1.84766 4.30432V11.7243C1.84783 12.3756 2.10665 13.0002 2.5672 13.4608C3.02775 13.9213 3.65234 14.1801 4.30366 14.1803H7.56032C8.20999 14.1803 8.83305 13.9223 9.2925 13.463C9.75194 13.0037 10.0101 12.3807 10.0103 11.731V11.1023" stroke="#FC544B" stroke-width="1.5" stroke-linecap="round" stroke-linejoin="round"/>
<path d="M14.5377 8.01365H6.51172M14.5377 8.01365L12.5864 6.07031M14.5377 8.01365L12.5864 9.95765" stroke="#FC544B" stroke-width="1.5" stroke-linecap="round" stroke-linejoin="round"/>
</svg>
