<svg width="14" height="12" viewBox="0 0 14 12" fill="none" xmlns="http://www.w3.org/2000/svg">
<path d="M13.6634 1.50202V9.42869C13.6555 9.75164 13.5337 10.0614 13.3194 10.3032C13.1052 10.545 12.8124 10.7032 12.4928 10.75L12.2828 10.7754C10.9529 10.9956 9.65336 11.3708 8.41076 11.8934C8.30966 11.9339 8.20018 11.949 8.09188 11.9374C7.98359 11.9258 7.87977 11.8879 7.78953 11.8269C7.69928 11.766 7.62535 11.6838 7.5742 11.5876C7.52304 11.4915 7.49623 11.3843 7.49609 11.2754V2.00002C7.49655 1.87817 7.5301 1.75874 7.59315 1.65447C7.65621 1.5502 7.7464 1.46502 7.85409 1.40802C9.20334 0.704744 10.6667 0.246526 12.1761 0.0546875H12.2161C12.4062 0.0546875 12.5944 0.0921238 12.77 0.164859C12.9456 0.237594 13.1051 0.344204 13.2395 0.478602C13.3739 0.612999 13.4805 0.772552 13.5533 0.948151C13.626 1.12375 13.6634 1.31195 13.6634 1.50202Z" fill="#2680EB"/>
<path d="M6.1387 1.409C4.78945 0.705721 3.32609 0.247503 1.8167 0.0556641H1.7767C1.39342 0.0563702 1.02607 0.209077 0.755238 0.480284C0.484405 0.751491 0.332207 1.11905 0.332031 1.50233V9.429C0.339951 9.75195 0.461793 10.0617 0.676018 10.3035C0.890243 10.5453 1.18306 10.7036 1.5027 10.7503L1.7127 10.7757C3.04268 10.9958 4.34223 11.3713 5.5847 11.8943C5.68581 11.9347 5.79529 11.9497 5.90354 11.9381C6.0118 11.9264 6.11555 11.8884 6.20573 11.8273C6.2959 11.7663 6.36975 11.6841 6.42082 11.5879C6.47189 11.4918 6.49863 11.3846 6.4987 11.2757V2.00033C6.49793 1.87839 6.46402 1.75895 6.40061 1.6548C6.3372 1.55064 6.24667 1.46568 6.1387 1.409ZM2.33203 3.429H3.83203C3.96464 3.429 4.09182 3.48168 4.18558 3.57544C4.27935 3.66921 4.33203 3.79639 4.33203 3.929C4.33203 4.06161 4.27935 4.18878 4.18558 4.28255C4.09182 4.37632 3.96464 4.429 3.83203 4.429H2.33203C2.19942 4.429 2.07225 4.37632 1.97848 4.28255C1.88471 4.18878 1.83203 4.06161 1.83203 3.929C1.83203 3.79639 1.88471 3.66921 1.97848 3.57544C2.07225 3.48168 2.19942 3.429 2.33203 3.429ZM4.33203 6.429H2.33203C2.19942 6.429 2.07225 6.37632 1.97848 6.28255C1.88471 6.18878 1.83203 6.06161 1.83203 5.929C1.83203 5.79639 1.88471 5.66921 1.97848 5.57544C2.07225 5.48168 2.19942 5.429 2.33203 5.429H4.33203C4.46464 5.429 4.59182 5.48168 4.68558 5.57544C4.77935 5.66921 4.83203 5.79639 4.83203 5.929C4.83203 6.06161 4.77935 6.18878 4.68558 6.28255C4.59182 6.37632 4.46464 6.429 4.33203 6.429Z" fill="#2680EB"/>
</svg>
