<svg width="13" height="16" viewBox="0 0 13 16" fill="none" xmlns="http://www.w3.org/2000/svg">
<path d="M6.72049 8.03717C8.4797 8.03717 9.90582 6.61105 9.90582 4.85184C9.90582 3.09263 8.4797 1.6665 6.72049 1.6665C4.96128 1.6665 3.53516 3.09263 3.53516 4.85184C3.53516 6.61105 4.96128 8.03717 6.72049 8.03717Z" stroke="#2680EB" stroke-width="1.5" stroke-linecap="round" stroke-linejoin="round"/>
<path fill-rule="evenodd" clip-rule="evenodd" d="M1.66798 12.4672C1.66713 12.2433 1.71721 12.0221 1.81444 11.8204C2.11955 11.2102 2.97997 10.8867 3.69392 10.7403C4.20883 10.6304 4.73085 10.557 5.25609 10.5206C6.22854 10.4352 7.2066 10.4352 8.17905 10.5206C8.70425 10.5574 9.22624 10.6308 9.74122 10.7403C10.4552 10.8867 11.3156 11.1796 11.6207 11.8204C11.8162 12.2316 11.8162 12.709 11.6207 13.1202C11.3156 13.7609 10.4552 14.0538 9.74122 14.1941C9.22691 14.3086 8.70471 14.384 8.17905 14.4199C7.38756 14.487 6.59237 14.4993 5.79919 14.4565C5.61612 14.4565 5.43916 14.4565 5.25609 14.4199C4.7324 14.3845 4.21219 14.309 3.70003 14.1941C2.97997 14.0538 2.12566 13.7609 1.81444 13.1202C1.71771 12.9161 1.66768 12.693 1.66798 12.4672Z" stroke="#6B718C" stroke-width="1.5" stroke-linecap="round" stroke-linejoin="round"/>
</svg>
