<svg width="16" height="14" viewBox="0 0 16 14" fill="none" xmlns="http://www.w3.org/2000/svg">
<path d="M14.5808 0.761462C14.399 0.592523 14.184 0.46326 13.9495 0.381887C13.7151 0.300514 13.4662 0.268812 13.2188 0.288795C13.2048 0.288795 13.1522 0.288795 13.1362 0.288795C11.3947 0.50488 9.71439 1.06847 8.19483 1.94613L8.08883 2.0128C8.02828 2.03302 7.96262 2.03185 7.90283 2.00946L7.7435 1.91346C6.22604 1.0457 4.54981 0.491411 2.81417 0.283462C2.56117 0.259498 2.30596 0.28904 2.06513 0.370166C1.8243 0.451291 1.60323 0.582186 1.4163 0.754342C1.22937 0.926498 1.08075 1.13606 0.980116 1.36942C0.879478 1.60277 0.829069 1.85469 0.832166 2.1088V10.1621C0.841373 10.6037 1.00609 11.0279 1.2973 11.36C1.58852 11.692 1.98757 11.9107 2.42417 11.9775L2.6195 12.0041C4.29344 12.2855 5.91514 12.8187 7.4295 13.5855C7.60401 13.6784 7.79913 13.7259 7.99683 13.7235C8.19132 13.7263 8.38325 13.679 8.55417 13.5861C10.0616 12.8179 11.6776 12.2846 13.3462 12.0048L13.5675 11.9781C14.0056 11.9129 14.4065 11.6949 14.6994 11.3625C14.9922 11.0302 15.158 10.605 15.1675 10.1621V2.1148C15.1698 1.86073 15.1188 1.609 15.0178 1.37588C14.9167 1.14277 14.7679 0.933448 14.5808 0.761462ZM2.7535 11.0135L2.5535 10.9861C2.35738 10.9515 2.17895 10.851 2.04777 10.7011C1.9166 10.5513 1.84053 10.3611 1.83217 10.1621V2.1088C1.8302 1.99284 1.85256 1.87775 1.8978 1.77096C1.94304 1.66417 2.01016 1.56805 2.09483 1.4888C2.24762 1.35015 2.44719 1.27442 2.6535 1.2768C2.6795 1.2768 2.7055 1.2768 2.73217 1.2768C4.3123 1.47263 5.83806 1.97925 7.2215 2.76746L7.3815 2.8628C7.4196 2.88174 7.45878 2.89844 7.49883 2.9128V12.5015C5.99379 11.7876 4.39668 11.2868 2.7535 11.0135ZM14.1655 10.1621C14.1573 10.361 14.0813 10.551 13.9502 10.7008C13.8192 10.8505 13.6408 10.951 13.4448 10.9855L13.2195 11.0128C11.5848 11.2846 9.99593 11.7829 8.49883 12.4935V2.9148C8.54122 2.89983 8.58263 2.88224 8.62283 2.86213L8.73217 2.79213C10.1022 2.00599 11.6128 1.4953 13.1788 1.2888C13.1928 1.2888 13.2455 1.2888 13.2608 1.2888C13.3761 1.27585 13.4928 1.28769 13.6031 1.32353C13.7135 1.35936 13.8149 1.41837 13.9005 1.49658C13.9862 1.5748 14.0542 1.67042 14.0999 1.77704C14.1456 1.88366 14.1679 1.99882 14.1655 2.1148V10.1621Z" fill="#6B718C"/>
<path d="M3.16406 4.66211C3.16406 4.5295 3.21674 4.40232 3.31051 4.30856C3.40428 4.21479 3.53145 4.16211 3.66406 4.16211H5.16406C5.29667 4.16211 5.42385 4.21479 5.51762 4.30856C5.61138 4.40232 5.66406 4.5295 5.66406 4.66211C5.66406 4.79472 5.61138 4.92189 5.51762 5.01566C5.42385 5.10943 5.29667 5.16211 5.16406 5.16211H3.66406C3.53145 5.16211 3.40428 5.10943 3.31051 5.01566C3.21674 4.92189 3.16406 4.79472 3.16406 4.66211ZM5.66406 6.16211H3.66406C3.53145 6.16211 3.40428 6.21479 3.31051 6.30856C3.21674 6.40232 3.16406 6.5295 3.16406 6.66211C3.16406 6.79472 3.21674 6.92189 3.31051 7.01566C3.40428 7.10943 3.53145 7.16211 3.66406 7.16211H5.66406C5.79667 7.16211 5.92385 7.10943 6.01762 7.01566C6.11138 6.92189 6.16406 6.79472 6.16406 6.66211C6.16406 6.5295 6.11138 6.40232 6.01762 6.30856C5.92385 6.21479 5.79667 6.16211 5.66406 6.16211Z" fill="#2680EB"/>
</svg>
